<?xml version="1.0" standalone="no"?>
<!DOCTYPE svg PUBLIC "-//W3C//DTD SVG 20010904//EN"
 "http://www.w3.org/TR/2001/REC-SVG-20010904/DTD/svg10.dtd">
<svg version="1.0" xmlns="http://www.w3.org/2000/svg"
 width="880.000000pt" height="880.000000pt" viewBox="0 0 880.000000 880.000000"
 preserveAspectRatio="xMidYMid meet">
<metadata>
Created by potrace 1.16, written by Peter Selinger 2001-2019
</metadata>
<g transform="translate(0.000000,880.000000) scale(0.100000,-0.100000)"
fill="#000000" stroke="none">
<path d="M4170 8661 c-14 -4 -44 -18 -68 -31 -41 -22 -44 -22 -93 -5 -91 29
-249 16 -249 -21 0 -9 5 -46 10 -83 8 -47 8 -75 0 -95 -12 -32 -18 -32 -155
-2 -72 15 -87 35 -78 108 7 59 12 59 -173 18 -316 -70 -506 -133 -774 -253
-353 -159 -691 -396 -1035 -728 -77 -75 -88 -89 -76 -102 23 -28 391 -207 588
-287 l97 -39 61 33 c33 18 139 82 235 143 216 136 352 212 484 270 55 24 110
48 121 53 55 25 159 66 234 91 89 30 172 78 196 112 11 15 15 49 15 117 l0 95
55 81 c30 44 64 89 76 100 21 19 21 19 39 -4 30 -36 45 -127 43 -250 l-2 -114
62 6 c131 14 195 28 216 47 19 18 20 22 7 57 -8 20 -24 80 -36 132 -12 52 -35
136 -52 187 -17 50 -28 98 -25 107 14 36 128 51 146 19 8 -17 31 -210 47 -411
5 -65 11 -85 25 -92 20 -11 490 -12 529 -1 20 6 32 25 62 101 44 108 51 118
73 100 11 -10 15 -34 15 -106 0 -94 0 -95 28 -105 15 -6 77 -13 137 -16 99 -5
116 -3 159 16 27 11 52 21 56 21 5 0 15 -19 22 -42 17 -49 17 -50 194 -73 139
-19 165 -16 184 19 22 41 40 40 87 -6 l43 -42 36 34 c20 19 53 60 74 90 21 30
75 91 120 135 110 107 200 220 200 251 0 18 -8 27 -27 35 -49 19 -288 89 -302
89 -10 0 -12 -10 -7 -42 4 -24 9 -70 13 -103 5 -56 3 -63 -22 -93 -29 -35 -73
-43 -94 -18 -6 7 -18 71 -27 142 -9 74 -23 141 -32 156 -27 47 -75 63 -173 60
-82 -2 -87 -1 -123 27 -28 22 -52 31 -94 36 -31 3 -99 13 -150 22 -77 13 -103
14 -147 4 -50 -11 -56 -11 -84 10 -16 12 -49 25 -73 30 -60 12 -587 21 -618
10z"/>
<path d="M6202 7893 c-80 -81 -151 -162 -171 -196 -40 -67 -100 -237 -101
-283 0 -17 -12 -55 -27 -85 -40 -78 -82 -79 -83 -2 0 84 -34 85 -49 1 -14 -80
-26 -92 -93 -90 -79 2 -74 6 -335 -278 -83 -91 -188 -201 -233 -245 -91 -89
-112 -123 -130 -208 -14 -69 -37 -94 -97 -103 -56 -8 -73 -22 -184 -152 -132
-153 -264 -297 -338 -369 -86 -84 -83 -84 -303 13 -90 40 -99 41 -123 14 -20
-22 -67 -27 -83 -7 -5 6 -13 23 -16 37 -17 59 -30 81 -65 102 -58 35 -266 144
-391 204 -63 31 -180 87 -259 126 -208 102 -323 149 -337 137 -7 -6 -15 -32
-19 -59 -12 -90 -57 -85 -71 8 -10 72 -28 105 -76 145 -25 21 -48 37 -52 37
-4 0 -119 53 -254 119 -248 119 -271 130 -415 195 -43 19 -90 44 -106 55 -58
42 -363 188 -411 198 -41 8 -39 -11 6 -101 115 -224 257 -460 398 -657 18 -26
46 -86 61 -134 16 -48 51 -125 79 -171 147 -243 180 -294 188 -294 4 0 8 90 8
201 0 119 4 208 10 220 6 10 21 19 34 19 35 0 45 -38 56 -234 25 -419 27 -433
63 -505 40 -79 219 -379 327 -546 132 -203 246 -401 280 -482 47 -113 39 -138
-95 -283 -348 -375 -493 -526 -970 -1010 -391 -395 -414 -424 -433 -530 -18
-95 -26 -108 -69 -112 -35 -3 -38 -6 -50 -48 -7 -25 -22 -66 -35 -92 -27 -60
-50 -63 -78 -8 -11 22 -25 40 -31 40 -15 0 -239 -223 -239 -237 0 -21 54 -16
333 31 144 25 368 61 497 80 129 20 260 41 290 46 30 6 107 20 170 31 165 29
428 87 453 100 12 6 33 22 47 35 15 14 40 24 65 26 33 2 42 8 54 32 7 16 25
42 38 57 38 42 52 76 59 138 11 98 34 115 78 59 31 -42 56 -103 64 -165 7 -44
10 -48 32 -45 43 5 113 4 155 -3 44 -7 315 38 484 81 120 30 128 30 182 -5 55
-35 86 -69 119 -128 48 -89 64 -64 63 103 -1 133 -5 150 -41 157 -32 7 -52 41
-52 91 0 31 14 53 53 79 13 9 19 35 26 111 11 111 24 136 61 116 43 -23 75
-124 105 -340 23 -160 35 -210 50 -210 10 0 15 32 20 128 3 70 13 179 21 241
11 92 12 126 2 172 -11 53 -9 68 16 168 15 61 25 115 21 121 -11 17 -44 11
-90 -16 -31 -18 -55 -24 -82 -22 -35 3 -42 9 -89 80 -60 90 -73 142 -48 194
15 30 15 42 4 95 -12 56 -11 62 7 86 10 15 38 33 61 41 48 16 51 27 17 64 -34
37 -112 154 -140 213 -64 130 -111 462 -102 717 7 210 43 373 103 471 57 93
78 118 152 180 75 64 103 91 233 231 208 223 498 318 969 317 281 -1 434 -32
639 -132 67 -33 125 -58 128 -55 3 3 23 137 44 298 39 296 75 562 109 808 35
254 101 890 93 903 -10 17 -32 0 -161 -130z m-3114 -4070 c11 -21 19 -67 27
-143 15 -146 20 -168 60 -225 19 -29 20 -42 18 -290 -3 -276 -8 -320 -38 -320
-14 0 -28 29 -67 139 -27 77 -58 180 -69 230 -27 124 -33 138 -81 164 -47 25
-56 21 -72 -30 -8 -25 -18 -34 -37 -36 -22 -3 -29 2 -38 29 -15 42 -14 161 1
211 9 29 20 44 44 55 30 15 35 14 76 -6 24 -11 47 -21 50 -21 10 0 17 26 33
123 9 50 23 102 31 115 17 26 50 29 62 5z"/>
<path d="M6667 8003 c-4 -3 -7 -35 -7 -70 0 -44 -6 -76 -20 -103 -30 -59 -92
-550 -73 -575 4 -6 49 -44 98 -85 50 -41 169 -142 265 -225 265 -228 268 -229
290 -176 6 16 21 38 32 47 32 30 40 3 34 -117 -6 -104 -6 -106 22 -145 16 -21
37 -46 46 -54 10 -8 36 -41 58 -73 39 -58 60 -68 67 -31 7 40 44 114 57 114
24 0 34 -37 49 -182 21 -214 37 -274 82 -304 33 -21 81 -99 95 -151 10 -42 34
-73 79 -104 20 -14 23 -27 29 -116 8 -110 35 -177 69 -171 14 3 16 24 15 178
l-1 175 -52 104 c-29 56 -57 126 -63 155 -11 49 -10 55 26 129 20 42 41 77 47
77 18 0 130 -103 141 -130 6 -14 14 -80 18 -147 6 -111 9 -126 35 -164 l27
-42 -16 -68 c-9 -38 -21 -105 -26 -151 -26 -217 -33 -259 -52 -338 -17 -71
-20 -104 -15 -200 3 -63 12 -158 21 -210 8 -52 22 -187 31 -300 22 -280 18
-269 113 -318 74 -39 295 -138 434 -197 37 -15 74 -25 83 -21 15 6 16 44 12
439 -5 457 -10 516 -67 807 -54 273 -153 588 -247 780 -105 217 -144 293 -162
319 -10 14 -35 60 -56 101 -56 111 -112 186 -165 220 -54 35 -60 45 -60 100 0
73 -129 240 -384 496 -326 327 -431 422 -481 435 -36 9 -52 21 -85 65 -23 30
-64 69 -93 88 -238 152 -238 152 -250 139z"/>
<path d="M1003 7013 c-34 -35 -55 -70 -77 -128 -29 -74 -35 -82 -89 -118 -68
-45 -97 -86 -195 -283 -160 -319 -247 -523 -315 -744 -118 -379 -177 -689
-192 -1010 -3 -63 -8 -149 -10 -190 -6 -89 10 -484 25 -620 37 -337 115 -694
237 -1080 45 -145 131 -340 173 -393 26 -33 40 -34 88 -3 63 41 108 97 169
211 l59 110 47 5 c52 7 71 21 133 103 29 39 44 69 44 89 0 16 -20 94 -44 171
-24 78 -50 166 -56 195 -13 55 -37 82 -76 82 -30 0 -41 17 -60 90 -18 71 -15
128 12 209 23 70 15 154 -31 351 -41 176 -47 243 -23 280 18 28 50 213 68 390
36 370 138 771 268 1055 30 66 79 192 108 279 38 113 62 168 81 188 28 29 28
29 28 176 l0 147 -86 140 c-47 77 -111 186 -143 243 -42 76 -62 102 -77 102
-11 0 -41 -21 -66 -47z"/>
<path d="M4111 4823 c-17 -62 -13 -172 10 -248 11 -39 29 -99 39 -134 42 -146
167 -211 494 -256 181 -25 294 -20 411 16 114 35 188 73 183 95 -2 8 -81 50
-179 93 -190 84 -254 118 -364 191 -146 98 -426 248 -500 269 -70 19 -83 15
-94 -26z"/>
<path d="M6453 4830 c-149 -39 -206 -68 -448 -229 -207 -137 -294 -186 -401
-225 -38 -15 -78 -30 -89 -35 -11 -5 -32 -13 -47 -20 -16 -6 -28 -17 -28 -26
0 -22 38 -43 161 -86 104 -36 119 -39 224 -39 169 0 431 44 541 91 45 19 116
85 138 128 31 60 76 210 87 287 13 94 6 149 -21 164 -24 13 -32 12 -117 -10z"/>
<path d="M6702 4383 c-29 -120 -57 -247 -63 -283 -23 -146 -24 -137 6 -172 23
-27 26 -38 22 -73 -20 -140 -37 -168 -158 -263 -91 -71 -149 -89 -200 -62 -24
13 -26 70 -2 106 33 50 9 120 -51 151 -46 24 -138 22 -219 -6 -64 -21 -103
-53 -90 -73 3 -6 5 -49 4 -96 -1 -105 -36 -244 -77 -305 -33 -49 -42 -143 -14
-141 8 1 209 43 445 93 237 51 498 103 582 116 131 21 277 50 428 85 22 5 99
23 170 39 72 17 168 42 215 56 52 16 175 37 320 55 343 44 540 87 540 119 0 5
-6 13 -12 19 -15 12 -515 262 -623 312 -38 17 -90 42 -115 54 -25 12 -70 32
-100 45 -52 20 -59 21 -91 7 -39 -16 -129 -24 -147 -12 -6 4 -19 31 -27 61
-16 52 -19 55 -96 100 -44 25 -150 77 -236 116 -86 38 -199 92 -251 119 -52
28 -98 50 -101 50 -4 0 -30 -98 -59 -217z"/>
<path d="M5269 4166 c-27 -27 -55 -69 -68 -103 -13 -32 -37 -79 -52 -104 -39
-61 -38 -107 4 -184 26 -49 37 -60 57 -60 23 0 26 5 31 50 5 47 29 98 71 154
15 20 18 43 18 145 0 66 -4 127 -9 134 -6 10 -19 1 -52 -32z"/>
<path d="M5410 4195 c-9 -10 -11 -46 -8 -122 5 -101 8 -113 41 -173 23 -42 38
-86 42 -123 8 -61 24 -79 50 -57 23 19 85 150 85 180 0 15 -16 51 -36 80 -20
29 -46 76 -57 104 -18 46 -81 126 -98 126 -4 0 -12 -7 -19 -15z"/>
<path d="M4671 3791 c-98 -34 -105 -44 -112 -157 -4 -54 -16 -144 -27 -199
-12 -55 -30 -190 -42 -300 -31 -297 -69 -570 -90 -655 -32 -128 -55 -340 -43
-388 3 -15 19 -29 44 -39 75 -30 129 -122 129 -220 0 -98 22 -169 100 -328 74
-152 125 -224 144 -205 7 7 11 95 11 279 l1 267 27 46 c25 43 105 108 132 108
7 0 20 -9 30 -20 16 -17 17 -32 11 -113 -3 -51 -17 -168 -31 -261 -16 -107
-26 -221 -28 -311 l-2 -142 38 -56 c21 -30 40 -70 42 -88 4 -30 14 -160 15
-182 0 -4 21 -7 47 -5 59 4 60 2 108 -202 25 -106 48 -176 72 -222 40 -77 68
-107 84 -91 6 6 28 132 49 280 44 310 106 762 120 878 5 44 19 154 30 245 11
91 29 224 41 295 17 108 22 203 29 565 9 458 24 753 42 808 7 23 19 37 39 44
41 14 36 35 -16 60 -35 17 -51 20 -72 12 l-28 -9 -2 -200 c-2 -110 -7 -357
-13 -550 -13 -457 -24 -515 -104 -515 -65 0 -61 -41 -61 627 l0 608 -25 0 -25
0 -6 -570 c-7 -668 -4 -648 -86 -653 -72 -4 -93 17 -93 96 0 51 -9 354 -25
906 -4 110 -8 204 -11 208 -3 4 -19 1 -36 -8 -24 -12 -29 -20 -23 -37 16 -50
26 -307 28 -695 2 -395 1 -414 -17 -427 -25 -19 -79 3 -122 48 -43 46 -40 24
-59 592 -10 298 -18 401 -33 445 -8 25 -21 71 -27 103 -11 51 -11 61 5 93 15
28 16 42 8 71 -6 21 -7 63 -4 94 6 52 5 59 -16 73 -29 21 -80 20 -147 -3z"/>
<path d="M8508 3410 c-26 -11 -95 -24 -155 -30 -147 -15 -320 -46 -365 -64
-47 -20 -55 -33 -112 -179 -50 -127 -68 -195 -87 -327 -13 -98 -27 -130 -63
-149 -28 -16 -39 -40 -106 -236 -61 -178 -67 -212 -84 -428 -13 -167 -22 -207
-48 -207 -21 0 -39 78 -49 222 -6 84 -14 156 -18 160 -12 13 -47 -19 -124
-114 -41 -51 -131 -150 -200 -220 -151 -152 -177 -196 -177 -295 0 -76 -15
-108 -57 -124 -36 -13 -58 -3 -82 36 -11 20 -28 35 -38 35 -10 0 -54 -25 -98
-56 -44 -30 -114 -74 -155 -97 -41 -22 -131 -75 -200 -116 -122 -74 -274 -153
-434 -225 -72 -33 -78 -38 -70 -59 4 -12 8 -43 8 -69 1 -41 -4 -52 -34 -83
-18 -19 -39 -35 -45 -35 -35 0 -45 -28 -75 -202 -34 -199 -37 -256 -16 -264
14 -6 200 59 416 144 69 27 181 68 250 92 133 45 322 135 380 180 19 15 56 41
82 56 173 105 220 139 229 161 5 13 9 63 9 111 0 142 11 157 75 101 19 -17 41
-29 48 -26 8 3 46 68 85 144 63 124 73 152 92 253 39 209 67 281 104 267 18
-7 44 -86 54 -162 l7 -60 48 3 c59 5 77 -9 77 -59 0 -50 13 -56 45 -22 56 59
441 584 512 698 91 147 190 348 234 475 18 52 38 103 45 113 10 16 8 27 -11
65 -51 102 -39 252 19 252 29 0 43 -20 52 -79 4 -23 11 -40 17 -38 11 3 97
263 123 373 9 39 14 79 11 88 -9 22 -60 20 -119 -4z"/>
<path d="M1535 2045 c-5 -1 -43 -9 -83 -16 -76 -13 -112 -39 -112 -79 0 -10
-7 -23 -16 -31 -13 -11 -22 -9 -57 10 -34 19 -47 21 -69 12 -15 -6 -82 -17
-150 -26 -67 -9 -125 -18 -130 -21 -12 -7 4 -34 100 -169 101 -143 136 -181
170 -190 48 -12 79 -44 133 -136 75 -127 188 -238 479 -470 113 -89 389 -253
638 -378 89 -45 109 -51 154 -49 50 3 51 2 72 -37 30 -58 63 -59 112 -6 26 29
44 41 64 41 32 0 36 -7 45 -83 4 -32 14 -62 24 -70 16 -14 452 -127 490 -127
10 0 26 11 35 25 25 38 54 31 111 -25 49 -48 52 -50 149 -67 96 -17 99 -17
113 2 15 20 14 35 -3 172 -8 67 -1 95 37 138 36 40 61 44 83 13 13 -18 16 -54
16 -180 l0 -158 26 -11 c36 -13 250 -37 409 -44 175 -9 415 8 455 32 17 9 30
20 30 24 0 3 18 14 39 24 37 16 43 17 81 1 103 -41 115 -10 41 111 -27 44 -77
134 -111 199 -124 236 -139 246 -375 264 -213 15 -484 16 -527 0 -33 -12 -41
-11 -95 13 -32 14 -150 49 -263 77 -389 97 -476 125 -650 205 -228 105 -248
113 -281 120 -19 4 -50 22 -70 40 -21 18 -75 51 -121 72 -46 22 -113 64 -148
94 -36 30 -99 81 -140 114 -109 87 -163 136 -382 352 -213 209 -257 239 -323
218z"/>
</g>
</svg>
